<svg width="288" height="288" viewBox="0 0 288 288" fill="none" xmlns="http://www.w3.org/2000/svg">
<path fill-rule="evenodd" clip-rule="evenodd" d="M144 288C223.529 288 288 223.529 288 144C288 64.471 223.529 0 144 0C64.471 0 0 64.471 0 144C0 223.529 64.471 288 144 288Z" fill="url(#paint0_linear_56_4)"/>
<path fill-rule="evenodd" clip-rule="evenodd" d="M245 288C268.748 288 288 268.748 288 245C288 221.252 268.748 202 245 202C221.252 202 202 221.252 202 245C202 268.748 221.252 288 245 288Z" fill="url(#paint1_linear_56_4)"/>
<defs>
<linearGradient id="paint0_linear_56_4" x1="162.393" y1="356.083" x2="357.624" y2="154.674" gradientUnits="userSpaceOnUse">
<stop stop-color="#99C6F2"/>
<stop offset="1" stop-color="#3D75BF"/>
</linearGradient>
<linearGradient id="paint1_linear_56_4" x1="246.509" y1="306.528" x2="290.318" y2="245.588" gradientUnits="userSpaceOnUse">
<stop stop-color="#FFD7A9"/>
<stop offset="1" stop-color="#FFAE70"/>
</linearGradient>
</defs>
</svg>
